<svg width="24" height="24" viewBox="0 0 24 24" fill="none" xmlns="http://www.w3.org/2000/svg">
<path d="M15.9 5.60034L18.9 2.60034L20.3002 4.10034L2.99998 21.4006L1.59973 19.9006L4.99948 16.5008C2.79973 14.6011 1.99948 12.3008 1.99948 12.3008L1.89973 12.0008L2.09998 11.7008C2.09998 11.6011 4.40023 5.00109 12 5.00109C13.5 5.00109 14.7 5.30109 15.9 5.60109V5.60034ZM12 9.00009H12.5002L14.3002 7.29984C13.6005 7.09959 12.8002 6.99984 12 6.99984C6.69973 6.99984 4.59973 10.8001 4.10023 12.0001C4.30048 12.6001 5.00023 14.0003 6.40048 15.0998L9.00073 12.4996V11.9993C9.00073 10.2991 10.3005 8.99934 12.0007 8.99934L12 9.00009Z" fill="black"/>
<path d="M21.9 11.7C21.9 11.7 21.0997 9.39975 18.9 7.5L17.4997 8.90025C18.9 10.0005 19.5997 11.4 19.8997 12C19.3995 13.2 17.2995 17.0002 12 17.0002C11.1997 17.0002 10.4002 16.9005 9.69973 16.7003L8.09998 18.3C9.20023 18.6997 10.5 18.9998 12 18.9998C19.5997 18.9998 21.9 12.3997 21.9 12.3L21.9997 12L21.9 11.7V11.7Z" fill="black"/>
<path d="M12 15C13.5998 15 15 13.5998 15 12V11.4998L11.4998 15H12Z" fill="black"/>
</svg>
