<?xml version="1.0" encoding="utf-8"?>
<!-- Generator: Adobe Illustrator 25.4.1, SVG Export Plug-In . SVG Version: 6.00 Build 0)  -->
<svg version="1.1" id="Calque_1" xmlns="http://www.w3.org/2000/svg" xmlns:xlink="http://www.w3.org/1999/xlink" x="0px" y="0px"
	 viewBox="0 0 128 128" style="enable-background:new 0 0 128 128;" xml:space="preserve">
<style type="text/css">
	.st0{fill:#1353D1;}
	.st1{fill:#FFFFFF;}
</style>
<g>
	<rect class="st0" width="128" height="128"/>
	<path class="st1" d="M64,29c-3.7,0-7.2,1.1-10.3,3.1c-3,2-5.4,4.9-6.8,8.2c-1.4,3.3-1.8,7.1-1,10.7c0.8,3.6,2.5,6.8,5.1,9.4
		c2.6,2.6,5.8,4.4,9.4,5.1c3.6,0.7,7.3,0.3,10.7-1c3.3-1.4,6.2-3.7,8.2-6.8c2-3,3.1-6.6,3.1-10.3c0-4.9-1.9-9.6-5.4-13
		C73.6,31,68.9,29,64,29L64,29L64,29z M64,58.5c-2.2,0-4.4-0.6-6.1-1.9c-1.8-1.2-3.3-3-4-5c-0.8-2-1.1-4.3-0.6-6.4
		c0.4-2.2,1.5-4.1,3-5.7c1.6-1.6,3.5-2.6,5.7-3c2.2-0.4,4.4-0.2,6.4,0.6c2,0.9,3.7,2.3,5,4c1.2,1.8,1.9,4,1.9,6.1
		c0,3-1.2,5.8-3.3,7.8S67,58.5,64,58.5L64,58.5z M97.1,99v-3.7c0-6.8-2.7-13.4-7.5-18.2c-4.8-4.8-11.4-7.5-18.2-7.5H56.6
		c-6.8,0-13.4,2.7-18.2,7.5s-7.5,11.4-7.5,18.2V99h7.4v-3.7c0-4.9,1.9-9.6,5.4-13c3.4-3.4,8.2-5.4,13-5.4h14.7c4.9,0,9.6,1.9,13,5.4
		c3.4,3.4,5.4,8.2,5.4,13V99H97.1z"/>
</g>
</svg>
