<?xml version="1.0" encoding="utf-8"?>
<!-- Generator: Adobe Illustrator 25.4.1, SVG Export Plug-In . SVG Version: 6.00 Build 0)  -->
<svg version="1.1" id="Calque_1" xmlns="http://www.w3.org/2000/svg" xmlns:xlink="http://www.w3.org/1999/xlink" x="0px" y="0px"
	 viewBox="0 0 24 24" style="enable-background:new 0 0 24 24;" xml:space="preserve">
<style type="text/css">
	.st0{fill:#1353D1;}
	.st1{fill:#FFFFFF;}
</style>
<path class="st0" d="M20,24H4c-2.2,0-4-1.8-4-4V4c0-2.2,1.8-4,4-4h16c2.2,0,4,1.8,4,4v16C24,22.2,22.2,24,20,24z"/>
<path class="st1" d="M17.6,5.6H16V4h-1.6v1.6H9.6V4H8v1.6H6.4c-0.9,0-1.6,0.7-1.6,1.6v11.2c0,0.9,0.7,1.6,1.6,1.6h11.2
	c0.9,0,1.6-0.7,1.6-1.6V7.2C19.2,6.3,18.5,5.6,17.6,5.6z M16.8,17.6H12v-4.8h4.8V17.6z M17.6,9.6H6.4V8h11.2V9.6z"/>
</svg>
